<?xml version="1.0" encoding="UTF-8"?>
<svg id="_圖層_3" data-name="圖層 3" xmlns="http://www.w3.org/2000/svg" viewBox="0 0 137.38 137.38">
  <defs>
    <style>
      .cls-1 {
        fill: #f4a24b;
      }

      .cls-2 {
        fill: #ed796c;
      }

      .cls-3 {
        fill: #fff;
      }

      .cls-4 {
        fill: #c46488;
      }

      .cls-5 {
        fill: #885f90;
      }

      .cls-6 {
        fill: #2d4757;
      }

      .cls-7 {
        fill: #4d577c;
      }
    </style>
  </defs>
  <circle class="cls-3" cx="68.69" cy="68.69" r="68.69"/>
  <g>
    <path class="cls-1" d="m105.97,59.6h6.39c2.07,0,3.75-1.68,3.75-3.75v-2.52c0-2.07-1.68-3.75-3.75-3.75h-6.39c-2.07,0-3.75,1.68-3.75,3.75v2.52c0,2.07,1.68,3.75,3.75,3.75Zm-.25-6.27c0-.14.11-.25.25-.25h6.39c.14,0,.25.11.25.25v2.52c0,.14-.11.25-.25.25h-6.39c-.14,0-.25-.11-.25-.25v-2.52Z"/>
    <polygon class="cls-4" points="95.01 39.8 75.43 39.8 74.43 43.8 93.91 43.8 95.01 39.8"/>
    <polygon class="cls-2" points="114.94 34.64 110.92 34.64 110.92 32.91 107.42 32.91 107.42 34.64 103.39 34.64 103.39 38.14 114.94 38.14 114.94 34.64"/>
    <path class="cls-7" d="m78.43,61.92c0-3.72,3.02-6.74,6.74-6.74h6.18l1.09-4h-7.27c-5.92,0-10.74,4.82-10.74,10.74v11.04h4v-11.04Z"/>
    <path class="cls-7" d="m92.8,82.89v-12.2h-4v12.2c0,3.72-3.02,6.74-6.74,6.74h-7.63v4h7.63c5.92,0,10.74-4.82,10.74-10.74Z"/>
    <polygon class="cls-4" points="120.07 39.8 102.84 39.8 102.07 43.3 119.09 43.3 120.07 39.8"/>
    <rect class="cls-2" x="104.76" y="44.71" width="8.81" height="3.5"/>
    <rect class="cls-2" x="93.02" y="56.1" width="7.46" height="3.5"/>
    <polygon class="cls-7" points="125.21 55.19 125.21 51.69 122.66 51.69 125.71 39.16 122.33 38.24 118.07 55.19 125.21 55.19"/>
    <polygon class="cls-7" points="100.48 55.19 100.48 51.69 97.78 51.69 100.83 39.16 97.45 38.24 93.19 55.19 100.48 55.19"/>
    <rect class="cls-2" x="118.07" y="56.1" width="7.14" height="3.5"/>
    <path class="cls-6" d="m126.12,72.69c1.88,0,3.42-1.53,3.42-3.42v-4.74c0-1.88-1.53-3.42-3.42-3.42h-41.39l1,4h39.81v3.58h-26.64c-1.88,0-3.42,1.53-3.42,3.42v4.65c0,1.88,1.53,3.42,3.42,3.42h26.64v11c0,5.59-4.55,10.14-10.14,10.14h-18.35c-1.24,0-2.25-1.01-2.25-2.25v-2.78l-4-1v3.78c0,3.45,2.8,6.25,6.25,6.25h18.35c7.8,0,14.14-6.34,14.14-14.14v-11.59c0-1.88-1.53-3.42-3.42-3.42h-26.64v-3.49h26.64Z"/>
  </g>
  <g>
    <path class="cls-1" d="m61.12,68.69H16.62c-3.2,0-5.81,2.6-5.81,5.81v25.02c0,3.2,2.6,5.81,5.81,5.81h44.5c3.2,0,5.81-2.6,5.81-5.81v-25.02c0-3.2-2.6-5.81-5.81-5.81Zm1.81,30.82c0,1-.81,1.81-1.81,1.81H16.62c-1,0-1.81-.81-1.81-1.81v-25.02c0-1,.81-1.81,1.81-1.81h44.5c1,0,1.81.81,1.81,1.81v25.02Z"/>
    <path class="cls-5" d="m64.92,65.38H17.07c-3.45,0-6.25-2.8-6.25-6.25v-18.8c0-4.23,3.44-7.67,7.67-7.67h8.7l3,4h-11.7c-2.02,0-3.67,1.65-3.67,3.67v18.8c0,1.24,1.01,2.25,2.25,2.25h44.17l-6.9-10.61,3.35-2.18,8.9,13.7c.4.62.43,1.4.08,2.04s-1.02,1.05-1.76,1.05Z"/>
  </g>
</svg>