<?xml version="1.0" encoding="UTF-8"?>
<svg xmlns="http://www.w3.org/2000/svg" viewBox="0 0 184.71 78.6">
  <defs>
    <style>
      .cls-1 {
        fill: #f4a24b;
      }

      .cls-2 {
        fill: #ed796c;
      }

      .cls-3 {
        fill: #fff;
      }

      .cls-4 {
        fill: #333434;
      }

      .cls-5 {
        fill: #c46488;
      }

      .cls-6 {
        fill: #885f90;
      }

      .cls-7 {
        fill: #2d4757;
      }

      .cls-8 {
        fill: #4d577c;
      }
    </style>
  </defs>
  <g id="_圖層_4" data-name="圖層 4">
    <g>
      <path class="cls-3" d="m8.81,78.6h44.5c4.86,0,8.81-3.95,8.81-8.81v-25.02c0-2.61-1.14-4.94-2.95-6.56.98-.44,1.81-1.19,2.34-2.17.87-1.61.8-3.57-.2-5.11l-8.91-13.7c-.57-.88-1.54-1.37-2.52-1.37-.56,0-1.13.16-1.63.48l-3.35,2.18c-.67.43-1.13,1.11-1.3,1.89-.17.78-.01,1.59.42,2.26l3.88,5.97H10V10.61c0-.37.3-.67.67-.67h11.7c1.14,0,2.18-.64,2.68-1.66s.4-2.23-.28-3.14l-3-4c-.57-.76-1.46-1.2-2.4-1.2h-8.7C4.79-.06,0,4.73,0,10.61v18.8C0,32.7,1.72,35.58,4.31,37.22,1.73,38.76,0,41.57,0,44.78v25.02C0,74.65,3.95,78.6,8.81,78.6Z"/>
      <path class="cls-3" d="m179.1,7.09h-58.86c-.16,0-.31.01-.46.04-.31-.26-.68-.45-1.09-.57l-3.38-.93c-.26-.07-.53-.11-.79-.11-.53,0-1.05.14-1.51.41-.47.28-.85.68-1.11,1.15h-1.77v-2.16c0-1.66-1.34-3-3-3h-1.31c-.48-1.02-1.52-1.72-2.72-1.72h-3.5c-1.2,0-2.24.71-2.72,1.72h-1.31c-1.66,0-3,1.34-3,3v1.29l-2.14-.59c-.26-.07-.53-.11-.79-.11-.53,0-1.05.14-1.51.41-.47.28-.85.68-1.11,1.15h-19.41c-1.38,0-2.58.94-2.91,2.27l-1,4c-.22.9-.02,1.85.55,2.57s1.44,1.15,2.36,1.15h17.78l-.35,1.38h-6.69c-7.58,0-13.74,6.16-13.74,13.74v11.04c0,1.66,1.34,3,3,3h4c1.66,0,3-1.34,3-3v-11.04c0-.67.19-1.29.5-1.84-.2.56-.26,1.17-.11,1.76l1,4c.33,1.34,1.53,2.27,2.91,2.27h1.55c-.89.52-1.49,1.47-1.49,2.58v12.2c0,2.06-1.68,3.74-3.74,3.74h-7.63c-1.66,0-3,1.34-3,3v4c0,1.66,1.34,3,3,3h7.63c2.05,0,3.99-.46,5.74-1.27v3.71c0,5.1,4.15,9.25,9.25,9.25h18.35c7.98,0,14.68-5.48,16.58-12.87.18.19.37.37.6.51.24.15.5.26.77.34-.42.19-.79.47-1.09.83-.59.72-.82,1.68-.61,2.59l.66,2.86c.32,1.36,1.53,2.32,2.92,2.32h2.22c1.06,0,2.42-.09,3.6-.68.55.51,1.28.79,2.03.79.28,0,.56-.04.84-.12,2.58-.75,5.09-1.89,7.5-3.39,1.87,1.38,3.92,2.48,6.12,3.28.34.12.68.18,1.02.18,1.07,0,2.1-.58,2.64-1.57l.52-.95c.34,1.33,1.54,2.26,2.9,2.26.06,0,.13,0,.19,0,2.9-.19,6.75-.28,11.43-.28,2.31,0,4.8-.11,7.41-.32.58.63,1.38.95,2.2.95.52,0,1.04-.13,1.52-.41l2.16-1.27c.82-.48,1.37-1.33,1.47-2.28.04-.39,0-.77-.1-1.14.82-.54,1.36-1.46,1.36-2.51v-1.85c0-1.05-.54-1.96-1.35-2.5.57-.9.98-2.19,1.35-4.2.21-1.14-.26-2.3-1.2-2.98l-1.42-1.02.04-2.64c0-.09-.02-.17-.02-.25,1.49-.18,2.65-1.43,2.65-2.96v-2.02c0-1.28-.8-2.36-1.93-2.79.13-.11.26-.22.38-.33,1.17-1.17,1.76-2.89,1.76-5.1V12.69c0-3.09-2.52-5.61-5.61-5.61Zm-85.16,11.26s0,0-.01,0v-.04s.01.03.01.03Z"/>
    </g>
  </g>
  <g id="_圖層_3" data-name="圖層 3">
    <g>
      <path class="cls-1" d="m98.16,29.88h6.39c2.07,0,3.75-1.68,3.75-3.75v-2.52c0-2.07-1.68-3.75-3.75-3.75h-6.39c-2.07,0-3.75,1.68-3.75,3.75v2.52c0,2.07,1.68,3.75,3.75,3.75Zm-.25-6.27c0-.14.11-.25.25-.25h6.39c.14,0,.25.11.25.25v2.52c0,.14-.11.25-.25.25h-6.39c-.14,0-.25-.11-.25-.25v-2.52Z"/>
      <polygon class="cls-5" points="87.19 10.09 67.61 10.09 66.61 14.09 86.1 14.09 87.19 10.09"/>
      <polygon class="cls-2" points="107.13 4.92 103.1 4.92 103.1 3.2 99.6 3.2 99.6 4.92 95.58 4.92 95.58 8.42 107.13 8.42 107.13 4.92"/>
      <path class="cls-8" d="m70.61,32.21c0-3.72,3.02-6.74,6.74-6.74h6.18l1.09-4h-7.27c-5.92,0-10.74,4.82-10.74,10.74v11.04h4v-11.04Z"/>
      <path class="cls-8" d="m84.98,53.17v-12.2h-4v12.2c0,3.72-3.02,6.74-6.74,6.74h-7.63v4h7.63c5.92,0,10.74-4.82,10.74-10.74Z"/>
      <polygon class="cls-5" points="112.25 10.09 95.02 10.09 94.25 13.59 111.27 13.59 112.25 10.09"/>
      <rect class="cls-2" x="96.94" y="15" width="8.81" height="3.5"/>
      <rect class="cls-2" x="85.2" y="26.38" width="7.46" height="3.5"/>
      <polygon class="cls-8" points="117.4 25.48 117.4 21.98 114.84 21.98 117.9 9.45 114.52 8.52 110.25 25.48 117.4 25.48"/>
      <polygon class="cls-8" points="92.67 25.48 92.67 21.98 89.96 21.98 93.02 9.45 89.64 8.52 85.37 25.48 92.67 25.48"/>
      <rect class="cls-2" x="110.25" y="26.38" width="7.14" height="3.5"/>
      <path class="cls-7" d="m118.3,42.97c1.88,0,3.42-1.53,3.42-3.42v-4.74c0-1.88-1.53-3.42-3.42-3.42h-41.39l1,4h39.81v3.58h-26.64c-1.88,0-3.42,1.53-3.42,3.42v4.65c0,1.88,1.53,3.42,3.42,3.42h26.64v11c0,5.59-4.55,10.14-10.14,10.14h-18.35c-1.24,0-2.25-1.01-2.25-2.25v-2.78l-4-1v3.78c0,3.45,2.8,6.25,6.25,6.25h18.35c7.8,0,14.14-6.34,14.14-14.14v-11.59c0-1.88-1.53-3.42-3.42-3.42h-26.64v-3.49h26.64Z"/>
    </g>
    <g>
      <path class="cls-1" d="m53.3,38.97H8.81c-3.2,0-5.81,2.6-5.81,5.81v25.02c0,3.2,2.6,5.81,5.81,5.81h44.5c3.2,0,5.81-2.6,5.81-5.81v-25.02c0-3.2-2.6-5.81-5.81-5.81Zm1.81,30.82c0,1-.81,1.81-1.81,1.81H8.81c-1,0-1.81-.81-1.81-1.81v-25.02c0-1,.81-1.81,1.81-1.81h44.5c1,0,1.81.81,1.81,1.81v25.02Z"/>
      <path class="cls-6" d="m57.11,35.67H9.25c-3.45,0-6.25-2.8-6.25-6.25V10.61c0-4.23,3.44-7.67,7.67-7.67h8.7l3,4h-11.7c-2.02,0-3.67,1.65-3.67,3.67v18.8c0,1.24,1.01,2.25,2.25,2.25h44.17l-6.9-10.61,3.35-2.18,8.9,13.7c.4.62.43,1.4.08,2.04s-1.02,1.05-1.76,1.05Z"/>
    </g>
    <g>
      <path class="cls-4" d="m149.36,42.82l2.31-2.19c-2.29-2.12-4.97-4.21-8.05-6.29l-2.13,1.73c3,2,5.62,4.25,7.87,6.75Z"/>
      <path class="cls-4" d="m145.59,24.88h5.31v-2.6h-5.31v-5.63h-2.91v5.63h-7.38v-5.63h-2.91v5.63h-5.14v2.6h5.14v6.17h-6.75v2.65h26.57v-2.65h-6.61v-6.17Zm-2.91,6.17h-7.38v-6.17h7.38v6.17Z"/>
      <path class="cls-4" d="m136.59,36.05l-2.19-1.73c-2.23,2.46-5.05,4.52-8.45,6.17l1.9,2.34c3.31-1.6,6.22-3.86,8.74-6.78Z"/>
      <path class="cls-4" d="m154.96,40.86l2.19,1.67c1.5-2.77,2.36-5.9,2.57-9.4h10.99v-9.29l.86.72,1.15-2.65c-2.85-2.13-5.06-3.68-6.64-4.64-.33-.19-.74-.44-1.24-.75h-2.48c-1.5,2.15-3.97,4.14-7.41,5.97l1.3,2.45,1.21-.78v6.86c0,3.6-.84,6.88-2.51,9.84Zm13.38-9.84h-8.57l.03-1.7h8.54v1.7Zm0-3.66h-8.51v-1.53h8.51v1.53Zm-4.44-8.54c2.1,1.19,4.32,2.83,6.66,4.9h-4.24c-.38-1.08-1.01-2.11-1.88-3.09l-2.42.58.95,1.3c.33.44.57.85.72,1.21h-5.51c2.04-1.33,3.94-2.96,5.71-4.9Z"/>
      <rect class="cls-4" x="173.22" y="18.31" width="2.6" height="18.26"/>
      <path class="cls-4" d="m171.34,42.91v-8.22h-11.51v8.22h2.45v-1.36h6.61v1.36h2.45Zm-9.06-3.46v-2.65h6.61v2.65h-6.61Z"/>
      <path class="cls-5" d="m120.24,10.09l-.96,3.5h58.94v24.56c0,.8-.4,1.2-1.2,1.2l-4.73-.19.83,3.75h4.32c1.68,0,2.81-.29,3.4-.88s.88-1.58.88-2.98V12.69c0-1.44-1.17-2.61-2.61-2.61h-58.86Z"/>
      <path class="cls-4" d="m150.75,58.47v-2.37h-5.68v-3.75h6.63v-2.57h-6.63v-3.98h-2.8v3.98h-6.06v1.79h-3.32v-5.77h-2.77v5.77h-4.15v2.57h4.15v5.65c-.44.11-1.18.29-2.22.52l-2.22.35.66,3.03,1.87-.46,1.9-.49v5.74c0,.61-.31.92-.92.92l-2.45-.09.66,2.86h2.22c1.44,0,2.35-.24,2.71-.72.36-.48.55-1.22.55-2.22v-7.27l1.79-.66c.19-.08.69-.29,1.5-.63v-2.77c-.1.04-.17.07-.23.09-.5.23-.97.42-1.41.58l-1.64.58v-4.99h3.32v-1.79h6.06v3.75h-5.57v2.6h11.19c-1.02,2.29-2.38,4.23-4.1,5.83-1.23-1.33-2.53-3.12-3.89-5.37l-2.34.92c1.25,2.25,2.53,4.1,3.84,5.54.12.12.26.27.43.46-2.54,1.6-5.25,2.81-8.13,3.63l1.56,2.57c2.96-.86,5.8-2.28,8.51-4.24,2.06,1.85,4.38,3.24,6.98,4.18l1.44-2.65c-2.67-.88-4.8-1.98-6.37-3.29,2.44-2.33,4.09-4.93,4.93-7.82Z"/>
      <polygon class="cls-4" points="174.92 45.81 172.35 45.81 172.35 47.28 169.32 47.28 169.32 49.3 172.35 49.3 172.35 50.39 174.92 50.39 174.92 49.3 181.5 49.3 181.5 47.28 174.92 47.28 174.92 45.81"/>
      <path class="cls-4" d="m179.65,58.9c-.04.86-.19,1.3-.45,1.3s-.39-1.31-.39-3.92l.06-3.81h-4.18v-1.5h-2.25v1.5h-3v1.99h3v1.27c0,.38-.04.67-.11.87l-.84-.58-.86-.55-1.15,1.5c.23.12.61.38,1.15.78l1.01.84c-.1.11-.16.2-.2.26-.67.88-1.36,1.53-2.05,1.93l-.29.14,1.79,1.85c.19-.17.35-.31.46-.4.81-.71,1.5-1.53,2.08-2.45l.69.66.69.75,1.5-1.56-1.01-.92-1.07-.86c.27-.4.4-1.06.4-1.96l.06-1.56h1.9v3.58c0,3.04.84,4.56,2.51,4.56.56,0,1.02-.25,1.38-.74.36-.49.7-1.57,1.01-3.25l-1.76-1.27c-.02.17-.05.69-.09,1.56Z"/>
      <rect class="cls-4" x="158.45" y="62.97" width="19.76" height="1.79"/>
      <path class="cls-4" d="m154.93,49.3h7.24v1.04h-.92v.75h-4.76v1.5h4.76v1.07h-5.74v1.67h2.8c-.46,1.06-1.47,1.71-3.03,1.96l1.13,1.79.66-.29.58-.26v.89h3.58v1.13l-2.68.09-2.8.03.4,1.88,5.91-.32,6.26-.4v-1.62l-2.37.17-2.39.11v-1.07h4.18v-1.47h-4.18v-1.5h-2.34v1.5h-2.48c.88-.52,1.42-1.41,1.62-2.68h4.12v.69c0,1.04.64,1.56,1.93,1.56.17,0,.36,0,.55-.01.19,0,.38-.02.58-.02h1.47v-1.33h-1.5c-.13,0-.29.01-.46.03h-.09c-.33,0-.49-.16-.49-.49v-.43h2.54v-1.62h-5.42v-1.07h4.5v-1.5h-4.5v-.75h1.15v-1.04h3v-2.02h-3v-1.47h-2.57v1.47h-7.24v2.02Z"/>
      <path class="cls-4" d="m155.13,67.7h6.84l-.84.84c-.33.33-.78.72-1.36,1.18l-1.73-.03c-.1,0-.39-.01-.88-.04-.49-.03-.8-.04-.94-.04l.58,2.37c2.98-.19,6.86-.29,11.62-.29,2.65,0,5.51-.14,8.57-.43l.58.55.46.52,2.16-1.27-2.05-1.85c-.21-.17-.65-.52-1.33-1.04-.15-.12-.36-.27-.61-.46l-2.1.84.58.43.61.49c-1.73.17-3.93.26-6.61.26l-5.65.09c.17-.17.31-.3.4-.38.37-.35.6-.58.69-.69l.95-1.04h16.36v-1.85h-26.31v1.85Z"/>
    </g>
  </g>
</svg>